# xmcd CD database file
#
# Track frame offsets:
#	150
#	15922
#	37312
#	55260
#	71835
#	95940
#	117018
#	134184
#	147028
#	163335
#	181270
#	202205
#	217175
#	231403
#	246995
#	268272
#	284919
#	298281
#	312481
#	329245
#
# Disc length: 4647 seconds
#
# Revision: 0
# Processed by: cddbd v1.5.2PL0 Copyright (c) Steve Scherf et al.
# Submitted via: CDex 1.70beta2
#
DISCID=6a122514
DTITLE=Various Artist - Now That's What I Call Country
DYEAR=2008
DGENRE=Country
TTITLE0=Carrie Underwood-All-American Girl
TTITLE1=Rascal Flatts-Winner At A Losing Game
TTITLE2=Gary Allan-Watching Airplanes
TTITLE3=Reba Mcentire-Because Of You (Duet With Kelly Clarkson)
TTITLE4=Keith Urban-Everybody
TTITLE5=Sugarland-Stay
TTITLE6=Lady Antebellum-Love Dont Live Here
TTITLE7=Taylor Swift-Picture To Burn
TTITLE8=Dierks Bentley-Trying To Stop Your Leaving
TTITLE9=Luke Bryan-All My Friends Say
TTITLE10=Brad Paisley-Letter To Me
TTITLE11=George Strait-I Saw God Today
TTITLE12=Julianne Hough-That Song In My Head
TTITLE13=Sara Evans-As If
TTITLE14=Kenny Chesney-Dont Blink
TTITLE15=Trace Adkins-Youre Gonna Miss This
TTITLE16=Chris Cagle-What Kinda Gone
TTITLE17=Kellie Pickler-Things That Never Cross A Mans Mind
TTITLE18=Josh Turner Feat Trisha Yearwood-Another Try
TTITLE19=Jason Michael Carroll-Alyssa Lies
EXTD=YEAR: 2008
EXTT0=
EXTT1=
EXTT2=
EXTT3=
EXTT4=
EXTT5=
EXTT6=
EXTT7=
EXTT8=
EXTT9=
EXTT10=
EXTT11=
EXTT12=
EXTT13=
EXTT14=
EXTT15=
EXTT16=
EXTT17=
EXTT18=
EXTT19=
PLAYORDER=
